<svg width="32" height="32" viewBox="0 0 32 32" fill="none" xmlns="http://www.w3.org/2000/svg">
<path d="M12.6663 8.00004C7.87987 8.00004 3.99967 11.8802 3.99967 16.6667C3.99967 21.4532 7.87987 25.3334 12.6663 25.3334H21.9997C25.3134 25.3334 27.9997 22.6471 27.9997 19.3334C27.9997 16.0196 25.3134 13.3334 21.9997 13.3334C21.5619 13.3334 21.1351 13.3803 20.7241 13.4692C19.4517 10.2653 16.3235 8.00004 12.6663 8.00004ZM21.9997 28H12.6663C6.40711 28 1.33301 22.9259 1.33301 16.6667C1.33301 10.4075 6.40711 5.33337 12.6663 5.33337C16.7241 5.33337 20.2838 7.46589 22.2858 10.6713C26.9398 10.8223 30.6663 14.6427 30.6663 19.3334C30.6663 24.1199 26.7862 28 21.9997 28Z" fill="#225156"/>
</svg>
