<svg width="32" height="32" viewBox="0 0 32 32" fill="none" xmlns="http://www.w3.org/2000/svg">
<path d="M8.31378 8.60435C6.46834 10.5219 5.33366 13.1284 5.33366 16C5.33366 21.891 10.1093 26.6666 16.0003 26.6666C17.4414 26.6666 18.8158 26.3809 20.0698 25.8629C20.2231 24.8622 19.8867 23.9021 19.7491 23.5661C19.443 22.82 18.4325 21.5442 16.7455 19.7744C16.2953 19.301 16.3242 18.938 16.4851 17.859L16.5037 17.7372C16.613 16.9981 16.7965 16.5612 19.2833 16.1664C20.5466 15.9661 20.8789 16.471 21.3394 17.1702C21.3903 17.2477 21.4413 17.3237 21.4934 17.3998C21.9309 18.0396 22.255 18.1858 22.7446 18.4085C22.9639 18.508 23.2377 18.6334 23.6045 18.8418C24.4738 19.3386 24.4738 19.8996 24.4738 21.1296V21.269C24.4738 21.7912 24.4227 22.2496 24.3425 22.6478C25.7974 20.8246 26.667 18.5138 26.667 16C26.667 11.6011 24.0043 7.82423 20.2029 6.19305C19.4653 6.6908 18.4534 7.39631 18.1003 7.87996C17.9198 8.12713 17.6646 9.38884 16.8346 9.49297C16.6171 9.52027 16.3254 9.50115 16.0163 9.48125C15.1877 9.4274 14.0539 9.35471 13.691 10.3399C13.4606 10.9642 13.4201 12.6592 14.1655 13.539C14.2849 13.6796 14.3079 13.9396 14.2269 14.2313C14.1203 14.6144 13.9051 14.8474 13.8381 14.8956C13.7095 14.8217 13.4531 14.5241 13.2795 14.3216C12.861 13.8353 12.3391 13.2297 11.6643 13.0423C11.4189 12.9744 11.1492 12.9182 10.8876 12.8631C10.1555 12.7097 9.32623 12.5351 9.13355 12.124C8.99289 11.8229 8.9935 11.4082 8.99404 10.9701C8.99404 10.4149 8.99404 9.78701 8.72204 9.17671C8.61694 8.94051 8.47618 8.75257 8.31378 8.60435ZM16.0003 29.3333C8.63653 29.3333 2.66699 23.3637 2.66699 16C2.66699 8.63616 8.63653 2.66663 16.0003 2.66663C23.3641 2.66663 29.3337 8.63616 29.3337 16C29.3337 23.3637 23.3641 29.3333 16.0003 29.3333Z" fill="#225156"/>
</svg>
