<svg width="48" height="48" viewBox="0 0 48 48" fill="none" xmlns="http://www.w3.org/2000/svg">
<path d="M4 44C4 35.1634 11.1634 28 20 28C28.8366 28 36 35.1634 36 44H32C32 37.3726 26.6274 32 20 32C13.3726 32 8 37.3726 8 44H4ZM20 26C13.37 26 8 20.63 8 14C8 7.37 13.37 2 20 2C26.63 2 32 7.37 32 14C32 20.63 26.63 26 20 26ZM20 22C24.42 22 28 18.42 28 14C28 9.58 24.42 6 20 6C15.58 6 12 9.58 12 14C12 18.42 15.58 22 20 22ZM36.5674 29.4056C42.1288 31.9122 46 37.504 46 44H42C42 39.128 39.0966 34.9342 34.9256 33.0542L36.5674 29.4056ZM35.1924 6.82642C39.1888 8.47406 42 12.4072 42 17C42 22.7404 37.6084 27.4504 32 27.9552V23.9292C35.3934 23.4444 38 20.528 38 17C38 14.2387 36.4032 11.8521 34.082 10.7127L35.1924 6.82642Z" fill="#225156"/>
</svg>
