<svg width="32" height="32" viewBox="0 0 32 32" fill="none" xmlns="http://www.w3.org/2000/svg">
<path d="M8.45797 19.6373L4.68673 23.4086L9.40077 28.1226L27.3142 10.2092L22.6001 5.4952L19.7717 8.32363L21.6573 10.2092L19.7717 12.0949L17.8861 10.2092L15.0577 13.0377L17.8861 15.8661L16.0005 17.7517L13.172 14.9233L10.3436 17.7517L12.2292 19.6373L10.3436 21.5229L8.45797 19.6373ZM23.5429 2.66678L30.1426 9.26644C30.6633 9.78714 30.6633 10.6313 30.1426 11.1521L10.3436 30.951C9.82289 31.4717 8.97866 31.4717 8.45797 30.951L1.8583 24.3514C1.3376 23.8306 1.3376 22.9865 1.8583 22.4658L21.6573 2.66678C22.1779 2.14607 23.0222 2.14607 23.5429 2.66678Z" fill="#225156"/>
</svg>
