<svg width="48" height="48" viewBox="0 0 48 48" fill="none" xmlns="http://www.w3.org/2000/svg">
<path d="M10.6589 6.54304C13.125 5.66628 15.9846 6.21486 17.9585 8.1888C20.2004 10.4306 20.6038 13.8147 19.1686 16.4676L40.586 37.8872L37.7576 40.7158L16.3396 19.2974C13.6865 20.7336 10.3014 20.3306 8.05904 18.0883C6.08454 16.1138 5.5362 13.2532 6.41402 10.7865L10.8875 15.2599C12.059 16.4314 13.9585 16.4314 15.1301 15.2599C16.3017 14.0883 16.3017 12.1888 15.1301 11.0172L10.6589 6.54304ZM31.3936 10.3101L37.7576 6.77458L40.586 9.60302L37.0504 15.967L33.5148 16.6741L29.2722 20.9168L26.4438 18.0883L30.6864 13.8457L31.3936 10.3101ZM17.9585 26.5736L20.787 29.402L10.1804 40.0086C9.39932 40.7896 8.13298 40.7896 7.35194 40.0086C6.62668 39.2834 6.57488 38.1396 7.19652 37.3546L7.35194 37.1802L17.9585 26.5736Z" fill="#225156"/>
</svg>
