<svg width="32" height="32" viewBox="0 0 32 32" fill="none" xmlns="http://www.w3.org/2000/svg">
<path d="M5.33333 9.14286C5.33333 4.09339 10.109 0 16 0C21.891 0 26.6667 4.09339 26.6667 9.14286C26.6667 9.54231 26.6366 9.9363 26.5785 10.3232C29.8133 11.892 32 14.8686 32 18.2857C32 23.3352 27.2244 27.4286 21.3333 27.4286H17.7778V32H14.2222V27.4286H9.77778C4.37765 27.4286 0 23.6763 0 19.0476C0 15.6744 2.32377 12.769 5.67285 11.4393C5.45129 10.7055 5.33333 9.93583 5.33333 9.14286ZM7.12825 14.22C5.01646 15.0732 3.55556 16.9155 3.55556 19.0476C3.55556 21.9931 6.34133 24.381 9.77778 24.381H21.3333C25.2606 24.381 28.4444 21.652 28.4444 18.2857C28.4444 15.7038 26.5708 13.4932 23.9189 12.6055L22.4229 12.1047C22.739 11.1289 23.1111 10.1666 23.1111 9.14286C23.1111 5.77655 19.9273 3.04762 16 3.04762C12.0726 3.04762 8.88889 5.77655 8.88889 9.14286C8.88889 11.1357 10.0028 12.9052 11.7337 14.0198L9.59794 16.4564C8.63586 15.8368 7.7994 15.0801 7.12825 14.22Z" fill="#225156"/>
</svg>
