<svg width="138" height="36" viewBox="0 0 138 36" fill="none" xmlns="http://www.w3.org/2000/svg">
<path fill-rule="evenodd" clip-rule="evenodd" d="M6.72366 0.447383H0.448244V34.1911L6.72366 25.579V0.447383ZM7.17191 25.7245L0 35.5669V0H7.17191V25.7245Z" fill="#171724"/>
<path fill-rule="evenodd" clip-rule="evenodd" d="M14.7921 10.2898H8.51664V22.3859L14.7921 14.1652V10.2898ZM15.2403 14.3162L8.06839 23.7113V9.84242H15.2403V14.3162Z" fill="#171724"/>
<path fill-rule="evenodd" clip-rule="evenodd" d="M22.8604 5.36859L1.56885 35.3432H12.1026L28.2703 12.34L33.8424 19.0138H43.0314L33.1701 5.36859H22.8604ZM32.9407 5.81598H23.0921L2.4361 34.8959H11.8695L28.2397 11.6045L34.0524 18.5664H42.1554L32.9407 5.81598Z" fill="#171724"/>
<path fill-rule="evenodd" clip-rule="evenodd" d="M20.171 25.9482L13.4473 35.3432H20.171V25.9482ZM19.7227 27.3442L14.3183 34.8959H19.7227V27.3442Z" fill="#171724"/>
<path d="M134.401 27.7377H138V35.7906H136.29V33.0848H135.321L133.272 35.7906H131.223L133.401 32.9238C132.842 32.7413 132.39 32.4191 132.046 31.9574C131.712 31.4957 131.545 30.9804 131.545 30.4113C131.545 29.6704 131.809 29.0423 132.336 28.5269C132.863 28.0008 133.552 27.7377 134.401 27.7377ZM134.498 31.587H136.29V29.3161H134.498C134.133 29.3161 133.831 29.4235 133.595 29.6382C133.369 29.8422 133.256 30.116 133.256 30.4596C133.256 30.8032 133.369 31.077 133.595 31.281C133.831 31.485 134.133 31.587 134.498 31.587Z" fill="#171724"/>
<path d="M124.263 32.8433L128.394 27.7377H129.733V35.7906H128.022V30.669L123.891 35.7906H122.552V27.7377H124.263V32.8433Z" fill="#171724"/>
<path d="M118.787 30.9428V27.7377H120.53V35.7906H118.787V32.5856H115.092V35.7906H113.349V27.7377H115.092V30.9428H118.787Z" fill="#171724"/>
<path d="M111.751 32.505H105.329C105.458 33.1063 105.748 33.5734 106.2 33.9062C106.663 34.2391 107.233 34.4055 107.91 34.4055C108.825 34.4055 109.519 34.0727 109.992 33.407L111.428 34.2445C110.643 35.4148 109.465 36 107.894 36C106.593 36 105.533 35.6027 104.715 34.8082C103.909 34.0029 103.505 32.9882 103.505 31.7642C103.505 30.5724 103.903 29.5684 104.699 28.7524C105.485 27.9364 106.507 27.5284 107.765 27.5284C108.938 27.5284 109.906 27.9417 110.67 28.7685C111.434 29.5953 111.816 30.5992 111.816 31.7803C111.816 31.995 111.794 32.2366 111.751 32.505ZM105.312 31.0877H110.057C109.938 30.4542 109.669 29.9657 109.25 29.6221C108.841 29.2785 108.341 29.1067 107.749 29.1067C107.104 29.1067 106.566 29.2839 106.135 29.6382C105.705 29.9925 105.431 30.4757 105.312 31.0877Z" fill="#171724"/>
<path d="M100.194 34.1478V27.7377H101.937V35.7906H90.6409V27.7377H92.3837V34.1478H95.4174V27.7377H97.1602V34.1478H100.194Z" fill="#171724"/>
<path d="M89.0429 32.505H82.6204C82.7495 33.1063 83.04 33.5734 83.4918 33.9062C83.9544 34.2391 84.5246 34.4055 85.2023 34.4055C86.1167 34.4055 86.8106 34.0727 87.284 33.407L88.7201 34.2445C87.9348 35.4148 86.7568 36 85.1862 36C83.8845 36 82.8248 35.6027 82.0072 34.8082C81.2004 34.0029 80.797 32.9882 80.797 31.7642C80.797 30.5724 81.195 29.5684 81.9911 28.7524C82.7764 27.9364 83.7984 27.5284 85.0571 27.5284C86.2297 27.5284 87.1979 27.9417 87.9617 28.7685C88.7255 29.5953 89.1074 30.5992 89.1074 31.7803C89.1074 31.995 89.0859 32.2366 89.0429 32.505ZM82.6043 31.0877H87.3485C87.2302 30.4542 86.9612 29.9657 86.5417 29.6221C86.1329 29.2785 85.6326 29.1067 85.041 29.1067C84.3955 29.1067 83.8576 29.2839 83.4273 29.6382C82.997 29.9925 82.7226 30.4757 82.6043 31.0877Z" fill="#171724"/>
<path d="M72.4109 24.5166H76.5742C77.6392 24.5166 78.5267 24.8709 79.2368 25.5795C79.9575 26.2882 80.3179 27.1687 80.3179 28.2209C80.3179 29.2624 79.9575 30.1429 79.2368 30.8622C78.5267 31.5709 77.6392 31.9252 76.5742 31.9252H74.2666V35.7906H72.4109V24.5166ZM74.2666 30.1858H76.5742C77.1228 30.1858 77.5747 30.0033 77.9297 29.6382C78.2847 29.2624 78.4622 28.79 78.4622 28.2209C78.4622 27.6518 78.2847 27.1848 77.9297 26.8197C77.5747 26.4439 77.1228 26.256 76.5742 26.256H74.2666V30.1858Z" fill="#171724"/>
<path d="M68.1099 31.6675L71.1275 35.7906H69.1104L67.1095 33.0365L65.0924 35.7906H63.0591L66.0928 31.6514L63.2205 27.7377H65.2376L67.0933 30.2824L68.949 27.7377H70.9823L68.1099 31.6675Z" fill="#171724"/>
<path d="M62.726 32.505H56.3036C56.4327 33.1063 56.7232 33.5734 57.175 33.9062C57.6376 34.2391 58.2077 34.4055 58.8855 34.4055C59.7999 34.4055 60.4938 34.0727 60.9671 33.407L62.4033 34.2445C61.618 35.4148 60.44 36 58.8694 36C57.5677 36 56.508 35.6027 55.6904 34.8082C54.8836 34.0029 54.4801 32.9882 54.4801 31.7642C54.4801 30.5724 54.8782 29.5684 55.6743 28.7524C56.4596 27.9364 57.4816 27.5284 58.7403 27.5284C59.9129 27.5284 60.8811 27.9417 61.6449 28.7685C62.4087 29.5953 62.7906 30.5992 62.7906 31.7803C62.7906 31.995 62.7691 32.2366 62.726 32.505ZM56.2875 31.0877H61.0317C60.9133 30.4542 60.6444 29.9657 60.2248 29.6221C59.816 29.2785 59.3158 29.1067 58.7241 29.1067C58.0787 29.1067 57.5408 29.2839 57.1104 29.6382C56.6801 29.9925 56.4058 30.4757 56.2875 31.0877Z" fill="#171724"/>
<path d="M46.8927 24.5166H55.1225V26.2882H51.9435V35.7906H50.0878V26.2882H46.8927V24.5166Z" fill="#171724"/>
<path d="M44.8489 34.776C44.0313 35.592 43.0254 36 41.8313 36C40.6372 36 39.6313 35.592 38.8137 34.776C37.9854 33.9492 37.5712 32.9453 37.5712 31.7642C37.5712 30.5831 37.9854 29.5792 38.8137 28.7524C39.6313 27.9364 40.6372 27.5284 41.8313 27.5284C43.0254 27.5284 44.0313 27.9364 44.8489 28.7524C45.6772 29.5792 46.0914 30.5831 46.0914 31.7642C46.0914 32.9453 45.6772 33.9492 44.8489 34.776ZM39.314 31.7642C39.314 32.4943 39.556 33.101 40.0401 33.5841C40.5242 34.0673 41.1213 34.3089 41.8313 34.3089C42.5413 34.3089 43.1384 34.0673 43.6225 33.5841C44.1066 33.101 44.3486 32.4943 44.3486 31.7642C44.3486 31.0341 44.1066 30.4274 43.6225 29.9442C43.1384 29.4611 42.5413 29.2195 41.8313 29.2195C41.1213 29.2195 40.5242 29.4611 40.0401 29.9442C39.556 30.4274 39.314 31.0341 39.314 31.7642Z" fill="#171724"/>
<path d="M36.4722 32.505H30.0498C30.1789 33.1063 30.4694 33.5734 30.9212 33.9062C31.3838 34.2391 31.9539 34.4055 32.6317 34.4055C33.5461 34.4055 34.24 34.0727 34.7133 33.407L36.1495 34.2445C35.3642 35.4148 34.1862 36 32.6156 36C31.3139 36 30.2542 35.6027 29.4366 34.8082C28.6298 34.0029 28.2263 32.9882 28.2263 31.7642C28.2263 30.5724 28.6244 29.5684 29.4205 28.7524C30.2058 27.9364 31.2278 27.5284 32.4865 27.5284C33.6591 27.5284 34.6273 27.9417 35.3911 28.7685C36.1549 29.5953 36.5368 30.5992 36.5368 31.7803C36.5368 31.995 36.5153 32.2366 36.4722 32.505ZM30.0337 31.0877H34.7779C34.6595 30.4542 34.3906 29.9657 33.971 29.6221C33.5622 29.2785 33.062 29.1067 32.4703 29.1067C31.8249 29.1067 31.287 29.2839 30.8566 29.6382C30.4263 29.9925 30.152 30.4757 30.0337 31.0877Z" fill="#171724"/>
<path d="M22.6453 24.5166H29.0193V26.2882H24.501V35.7906H22.6453V24.5166Z" fill="#171724"/>
</svg>
